<svg viewBox="0 0 379 428" role="img" aria-label="isometric view of the 124-move menu">
<line x1="81.8" y1="151.9" x2="296.9" y2="276.1" stroke="hsl(var(--muted-fg))" stroke-width="1.2" opacity="0.75"/>
<text x="304.9" y="280.1" class="axis">x</text>
<line x1="296.9" y1="151.9" x2="81.8" y2="276.1" stroke="hsl(var(--muted-fg))" stroke-width="1.2" opacity="0.75"/>
<text x="67.8" y="280.1" class="axis">y</text>
<line x1="189.3" y1="338.2" x2="189.3" y2="89.8" stroke="hsl(var(--muted-fg))" stroke-width="1.2" opacity="0.75"/>
<text x="193.3" y="83.8" class="axis">z</text>
<circle cx="189.3" cy="30.0" r="3.2" fill="hsl(var(--link))" opacity="0.55"/>
<circle cx="189.3" cy="76.0" r="3.2" fill="hsl(var(--link))" opacity="0.55"/>
<circle cx="149.5" cy="53.0" r="3.2" fill="hsl(var(--link))" opacity="0.55"/>
<circle cx="229.2" cy="53.0" r="3.2" fill="hsl(var(--link))" opacity="0.55"/>
<circle cx="189.3" cy="122.0" r="3.2" fill="hsl(var(--link))" opacity="0.55"/>
<circle cx="149.5" cy="99.0" r="3.2" fill="hsl(var(--link))" opacity="0.55"/>
<circle cx="109.7" cy="76.0" r="3.2" fill="hsl(var(--link))" opacity="0.55"/>
<circle cx="229.2" cy="99.0" r="3.2" fill="hsl(var(--link))" opacity="0.55"/>
<circle cx="189.3" cy="76.0" r="3.2" fill="hsl(var(--link))" opacity="0.55"/>
<circle cx="269.0" cy="76.0" r="3.2" fill="hsl(var(--link))" opacity="0.55"/>
<circle cx="189.3" cy="168.0" r="3.2" fill="hsl(var(--link))" opacity="0.55"/>
<circle cx="149.5" cy="145.0" r="3.2" fill="hsl(var(--link))" opacity="0.55"/>
<circle cx="109.7" cy="122.0" r="3.2" fill="hsl(var(--link))" opacity="0.55"/>
<circle cx="69.8" cy="99.0" r="3.2" fill="hsl(var(--link))" opacity="0.55"/>
<circle cx="229.2" cy="145.0" r="3.2" fill="hsl(var(--link))" opacity="0.55"/>
<circle cx="189.3" cy="122.0" r="4.2" fill="hsl(var(--link))" opacity="0.95"/>
<circle cx="149.5" cy="99.0" r="3.2" fill="hsl(var(--link))" opacity="0.55"/>
<circle cx="269.0" cy="122.0" r="3.2" fill="hsl(var(--link))" opacity="0.55"/>
<circle cx="229.2" cy="99.0" r="3.2" fill="hsl(var(--link))" opacity="0.55"/>
<circle cx="308.9" cy="99.0" r="3.2" fill="hsl(var(--link))" opacity="0.55"/>
<circle cx="189.3" cy="214.0" r="3.2" fill="hsl(var(--link))" opacity="0.55"/>
<circle cx="149.5" cy="191.0" r="3.2" fill="hsl(var(--link))" opacity="0.55"/>
<circle cx="109.7" cy="168.0" r="3.2" fill="hsl(var(--link))" opacity="0.55"/>
<circle cx="69.8" cy="145.0" r="3.2" fill="hsl(var(--link))" opacity="0.55"/>
<circle cx="30.0" cy="122.0" r="3.2" fill="hsl(var(--link))" opacity="0.55"/>
<circle cx="229.2" cy="191.0" r="3.2" fill="hsl(var(--link))" opacity="0.55"/>
<circle cx="189.3" cy="168.0" r="4.2" fill="hsl(var(--link))" opacity="0.95"/>
<circle cx="149.5" cy="145.0" r="4.2" fill="hsl(var(--link))" opacity="0.95"/>
<circle cx="109.7" cy="122.0" r="3.2" fill="hsl(var(--link))" opacity="0.55"/>
<circle cx="269.0" cy="168.0" r="3.2" fill="hsl(var(--link))" opacity="0.55"/>
<circle cx="229.2" cy="145.0" r="4.2" fill="hsl(var(--link))" opacity="0.95"/>
<circle cx="189.3" cy="122.0" r="3.2" fill="hsl(var(--link))" opacity="0.55"/>
<circle cx="308.9" cy="145.0" r="3.2" fill="hsl(var(--link))" opacity="0.55"/>
<circle cx="269.0" cy="122.0" r="3.2" fill="hsl(var(--link))" opacity="0.55"/>
<circle cx="348.7" cy="122.0" r="3.2" fill="hsl(var(--link))" opacity="0.55"/>
<circle cx="149.5" cy="237.0" r="3.2" fill="hsl(var(--link))" opacity="0.55"/>
<circle cx="109.7" cy="214.0" r="3.2" fill="hsl(var(--link))" opacity="0.55"/>
<circle cx="69.8" cy="191.0" r="3.2" fill="hsl(var(--link))" opacity="0.55"/>
<circle cx="30.0" cy="168.0" r="3.2" fill="hsl(var(--link))" opacity="0.55"/>
<circle cx="229.2" cy="237.0" r="3.2" fill="hsl(var(--link))" opacity="0.55"/>
<circle cx="189.3" cy="214.0" r="4.2" fill="hsl(var(--link))" opacity="0.95"/>
<circle cx="149.5" cy="191.0" r="4.2" fill="hsl(var(--link))" opacity="0.95"/>
<circle cx="109.7" cy="168.0" r="4.2" fill="hsl(var(--link))" opacity="0.95"/>
<circle cx="69.8" cy="145.0" r="3.2" fill="hsl(var(--link))" opacity="0.55"/>
<circle cx="269.0" cy="214.0" r="3.2" fill="hsl(var(--link))" opacity="0.55"/>
<circle cx="229.2" cy="191.0" r="4.2" fill="hsl(var(--link))" opacity="0.95"/>
<circle cx="189.3" cy="168.0" r="4.2" fill="hsl(var(--link))" opacity="0.95"/>
<circle cx="149.5" cy="145.0" r="3.2" fill="hsl(var(--link))" opacity="0.55"/>
<circle cx="308.9" cy="191.0" r="3.2" fill="hsl(var(--link))" opacity="0.55"/>
<circle cx="269.0" cy="168.0" r="4.2" fill="hsl(var(--link))" opacity="0.95"/>
<circle cx="229.2" cy="145.0" r="3.2" fill="hsl(var(--link))" opacity="0.55"/>
<circle cx="348.7" cy="168.0" r="3.2" fill="hsl(var(--link))" opacity="0.55"/>
<circle cx="308.9" cy="145.0" r="3.2" fill="hsl(var(--link))" opacity="0.55"/>
<circle cx="109.7" cy="260.0" r="3.2" fill="hsl(var(--link))" opacity="0.55"/>
<circle cx="69.8" cy="237.0" r="3.2" fill="hsl(var(--link))" opacity="0.55"/>
<circle cx="30.0" cy="214.0" r="3.2" fill="hsl(var(--link))" opacity="0.55"/>
<circle cx="189.3" cy="260.0" r="3.2" fill="hsl(var(--link))" opacity="0.55"/>
<circle cx="149.5" cy="237.0" r="4.2" fill="hsl(var(--link))" opacity="0.95"/>
<circle cx="109.7" cy="214.0" r="4.2" fill="hsl(var(--link))" opacity="0.95"/>
<circle cx="69.8" cy="191.0" r="3.2" fill="hsl(var(--link))" opacity="0.55"/>
<circle cx="269.0" cy="260.0" r="3.2" fill="hsl(var(--link))" opacity="0.55"/>
<circle cx="229.2" cy="237.0" r="4.2" fill="hsl(var(--link))" opacity="0.95"/>
<circle cx="149.5" cy="191.0" r="4.2" fill="hsl(var(--link))" opacity="0.95"/>
<circle cx="109.7" cy="168.0" r="3.2" fill="hsl(var(--link))" opacity="0.55"/>
<circle cx="308.9" cy="237.0" r="3.2" fill="hsl(var(--link))" opacity="0.55"/>
<circle cx="269.0" cy="214.0" r="4.2" fill="hsl(var(--link))" opacity="0.95"/>
<circle cx="229.2" cy="191.0" r="4.2" fill="hsl(var(--link))" opacity="0.95"/>
<circle cx="189.3" cy="168.0" r="3.2" fill="hsl(var(--link))" opacity="0.55"/>
<circle cx="348.7" cy="214.0" r="3.2" fill="hsl(var(--link))" opacity="0.55"/>
<circle cx="308.9" cy="191.0" r="3.2" fill="hsl(var(--link))" opacity="0.55"/>
<circle cx="269.0" cy="168.0" r="3.2" fill="hsl(var(--link))" opacity="0.55"/>
<circle cx="69.8" cy="283.0" r="3.2" fill="hsl(var(--link))" opacity="0.55"/>
<circle cx="30.0" cy="260.0" r="3.2" fill="hsl(var(--link))" opacity="0.55"/>
<circle cx="149.5" cy="283.0" r="3.2" fill="hsl(var(--link))" opacity="0.55"/>
<circle cx="109.7" cy="260.0" r="4.2" fill="hsl(var(--link))" opacity="0.95"/>
<circle cx="69.8" cy="237.0" r="3.2" fill="hsl(var(--link))" opacity="0.55"/>
<circle cx="229.2" cy="283.0" r="3.2" fill="hsl(var(--link))" opacity="0.55"/>
<circle cx="189.3" cy="260.0" r="4.2" fill="hsl(var(--link))" opacity="0.95"/>
<circle cx="149.5" cy="237.0" r="4.2" fill="hsl(var(--link))" opacity="0.95"/>
<circle cx="109.7" cy="214.0" r="3.2" fill="hsl(var(--link))" opacity="0.55"/>
<circle cx="308.9" cy="283.0" r="3.2" fill="hsl(var(--link))" opacity="0.55"/>
<circle cx="269.0" cy="260.0" r="4.2" fill="hsl(var(--link))" opacity="0.95"/>
<circle cx="229.2" cy="237.0" r="4.2" fill="hsl(var(--link))" opacity="0.95"/>
<circle cx="189.3" cy="214.0" r="4.2" fill="hsl(var(--link))" opacity="0.95"/>
<circle cx="149.5" cy="191.0" r="3.2" fill="hsl(var(--link))" opacity="0.55"/>
<circle cx="348.7" cy="260.0" r="3.2" fill="hsl(var(--link))" opacity="0.55"/>
<circle cx="308.9" cy="237.0" r="3.2" fill="hsl(var(--link))" opacity="0.55"/>
<circle cx="269.0" cy="214.0" r="3.2" fill="hsl(var(--link))" opacity="0.55"/>
<circle cx="229.2" cy="191.0" r="3.2" fill="hsl(var(--link))" opacity="0.55"/>
<circle cx="30.0" cy="306.0" r="3.2" fill="hsl(var(--link))" opacity="0.55"/>
<circle cx="109.7" cy="306.0" r="3.2" fill="hsl(var(--link))" opacity="0.55"/>
<circle cx="69.8" cy="283.0" r="3.2" fill="hsl(var(--link))" opacity="0.55"/>
<circle cx="189.3" cy="306.0" r="3.2" fill="hsl(var(--link))" opacity="0.55"/>
<circle cx="149.5" cy="283.0" r="4.2" fill="hsl(var(--link))" opacity="0.95"/>
<circle cx="109.7" cy="260.0" r="3.2" fill="hsl(var(--link))" opacity="0.55"/>
<circle cx="269.0" cy="306.0" r="3.2" fill="hsl(var(--link))" opacity="0.55"/>
<circle cx="229.2" cy="283.0" r="4.2" fill="hsl(var(--link))" opacity="0.95"/>
<circle cx="189.3" cy="260.0" r="4.2" fill="hsl(var(--link))" opacity="0.95"/>
<circle cx="149.5" cy="237.0" r="3.2" fill="hsl(var(--link))" opacity="0.55"/>
<circle cx="348.7" cy="306.0" r="3.2" fill="hsl(var(--link))" opacity="0.55"/>
<circle cx="308.9" cy="283.0" r="3.2" fill="hsl(var(--link))" opacity="0.55"/>
<circle cx="269.0" cy="260.0" r="3.2" fill="hsl(var(--link))" opacity="0.55"/>
<circle cx="229.2" cy="237.0" r="3.2" fill="hsl(var(--link))" opacity="0.55"/>
<circle cx="189.3" cy="214.0" r="3.2" fill="hsl(var(--link))" opacity="0.55"/>
<circle cx="69.8" cy="329.0" r="3.2" fill="hsl(var(--link))" opacity="0.55"/>
<circle cx="149.5" cy="329.0" r="3.2" fill="hsl(var(--link))" opacity="0.55"/>
<circle cx="109.7" cy="306.0" r="3.2" fill="hsl(var(--link))" opacity="0.55"/>
<circle cx="229.2" cy="329.0" r="3.2" fill="hsl(var(--link))" opacity="0.55"/>
<circle cx="189.3" cy="306.0" r="4.2" fill="hsl(var(--link))" opacity="0.95"/>
<circle cx="149.5" cy="283.0" r="3.2" fill="hsl(var(--link))" opacity="0.55"/>
<circle cx="308.9" cy="329.0" r="3.2" fill="hsl(var(--link))" opacity="0.55"/>
<circle cx="269.0" cy="306.0" r="3.2" fill="hsl(var(--link))" opacity="0.55"/>
<circle cx="229.2" cy="283.0" r="3.2" fill="hsl(var(--link))" opacity="0.55"/>
<circle cx="189.3" cy="260.0" r="3.2" fill="hsl(var(--link))" opacity="0.55"/>
<circle cx="109.7" cy="352.0" r="3.2" fill="hsl(var(--link))" opacity="0.55"/>
<circle cx="189.3" cy="352.0" r="3.2" fill="hsl(var(--link))" opacity="0.55"/>
<circle cx="149.5" cy="329.0" r="3.2" fill="hsl(var(--link))" opacity="0.55"/>
<circle cx="269.0" cy="352.0" r="3.2" fill="hsl(var(--link))" opacity="0.55"/>
<circle cx="229.2" cy="329.0" r="3.2" fill="hsl(var(--link))" opacity="0.55"/>
<circle cx="189.3" cy="306.0" r="3.2" fill="hsl(var(--link))" opacity="0.55"/>
<circle cx="149.5" cy="375.0" r="3.2" fill="hsl(var(--link))" opacity="0.55"/>
<circle cx="229.2" cy="375.0" r="3.2" fill="hsl(var(--link))" opacity="0.55"/>
<circle cx="189.3" cy="352.0" r="3.2" fill="hsl(var(--link))" opacity="0.55"/>
<circle cx="189.3" cy="398.0" r="3.2" fill="hsl(var(--link))" opacity="0.55"/>
<circle cx="189.3" cy="214.0" r="5" fill="hsl(var(--foreground))"/>
</svg>