<svg viewBox="0 0 333 363" role="img" aria-label="isometric view of the 124-move menu">
<line x1="52.3" y1="163.8" x2="280.4" y2="199.5" stroke="hsl(var(--muted-fg))" stroke-width="1.2" opacity="0.75"/>
<text x="290.4" y="203.5" class="axis">x</text>
<circle cx="69.3" cy="166.5" r="1.8" fill="hsl(var(--muted-fg))"/>
<text x="74.3" y="177.5" class="axis" style="font-size:10px" opacity="0.7">-2</text>
<circle cx="117.8" cy="174.1" r="1.8" fill="hsl(var(--muted-fg))"/>
<circle cx="214.9" cy="189.2" r="1.8" fill="hsl(var(--muted-fg))"/>
<circle cx="263.5" cy="196.8" r="1.8" fill="hsl(var(--muted-fg))"/>
<text x="268.5" y="207.8" class="axis" style="font-size:10px" opacity="0.7">+2</text>
<line x1="210.2" y1="135.3" x2="122.6" y2="228.1" stroke="hsl(var(--muted-fg))" stroke-width="1.2" opacity="0.75"/>
<text x="118.6" y="220.1" class="axis">y</text>
<circle cx="203.6" cy="142.2" r="1.8" fill="hsl(var(--muted-fg))"/>
<text x="208.6" y="153.2" class="axis" style="font-size:10px" opacity="0.7">-2</text>
<circle cx="185.0" cy="161.9" r="1.8" fill="hsl(var(--muted-fg))"/>
<circle cx="147.7" cy="201.4" r="1.8" fill="hsl(var(--muted-fg))"/>
<circle cx="129.1" cy="221.1" r="1.8" fill="hsl(var(--muted-fg))"/>
<text x="134.1" y="232.1" class="axis" style="font-size:10px" opacity="0.7">+2</text>
<line x1="166.4" y1="293.3" x2="166.4" y2="70.0" stroke="hsl(var(--muted-fg))" stroke-width="1.2" opacity="0.75"/>
<text x="172.4" y="66.0" class="axis">z</text>
<circle cx="166.4" cy="276.7" r="1.8" fill="hsl(var(--muted-fg))"/>
<text x="171.4" y="287.7" class="axis" style="font-size:10px" opacity="0.7">-2</text>
<circle cx="166.4" cy="229.2" r="1.8" fill="hsl(var(--muted-fg))"/>
<circle cx="166.4" cy="134.2" r="1.8" fill="hsl(var(--muted-fg))"/>
<circle cx="166.4" cy="86.7" r="1.8" fill="hsl(var(--muted-fg))"/>
<text x="171.4" y="97.7" class="axis" style="font-size:10px" opacity="0.7">+2</text>
<circle cx="106.5" cy="32.0" r="3.1" fill="hsl(var(--link))" opacity="0.5"/>
<circle cx="106.5" cy="79.5" r="3.1" fill="hsl(var(--link))" opacity="0.5"/>
<circle cx="87.9" cy="51.7" r="3.1" fill="hsl(var(--link))" opacity="0.5"/>
<circle cx="155.1" cy="39.6" r="3.1" fill="hsl(var(--link))" opacity="0.5"/>
<circle cx="106.5" cy="127.0" r="3.1" fill="hsl(var(--link))" opacity="0.5"/>
<circle cx="87.9" cy="99.2" r="3.1" fill="hsl(var(--link))" opacity="0.5"/>
<circle cx="69.3" cy="71.5" r="3.1" fill="hsl(var(--link))" opacity="0.5"/>
<circle cx="155.1" cy="87.1" r="3.1" fill="hsl(var(--link))" opacity="0.5"/>
<circle cx="136.5" cy="59.3" r="3.1" fill="hsl(var(--link))" opacity="0.5"/>
<circle cx="203.6" cy="47.2" r="3.1" fill="hsl(var(--link))" opacity="0.5"/>
<circle cx="106.5" cy="174.5" r="3.1" fill="hsl(var(--link))" opacity="0.5"/>
<circle cx="87.9" cy="146.8" r="3.1" fill="hsl(var(--link))" opacity="0.5"/>
<circle cx="69.3" cy="119.0" r="3.1" fill="hsl(var(--link))" opacity="0.5"/>
<circle cx="50.6" cy="91.2" r="3.1" fill="hsl(var(--link))" opacity="0.5"/>
<circle cx="155.1" cy="134.6" r="3.1" fill="hsl(var(--link))" opacity="0.5"/>
<circle cx="136.5" cy="106.8" r="4.4" fill="hsl(var(--link))" opacity="0.95"/>
<circle cx="117.8" cy="79.1" r="3.1" fill="hsl(var(--link))" opacity="0.5"/>
<circle cx="203.6" cy="94.7" r="3.1" fill="hsl(var(--link))" opacity="0.5"/>
<circle cx="185.0" cy="66.9" r="3.1" fill="hsl(var(--link))" opacity="0.5"/>
<circle cx="252.2" cy="54.7" r="3.1" fill="hsl(var(--link))" opacity="0.5"/>
<circle cx="106.5" cy="222.0" r="3.1" fill="hsl(var(--link))" opacity="0.5"/>
<circle cx="87.9" cy="194.3" r="3.1" fill="hsl(var(--link))" opacity="0.5"/>
<circle cx="69.3" cy="166.5" r="3.1" fill="hsl(var(--link))" opacity="0.5"/>
<circle cx="50.6" cy="138.7" r="3.1" fill="hsl(var(--link))" opacity="0.5"/>
<circle cx="32.0" cy="111.0" r="3.1" fill="hsl(var(--link))" opacity="0.5"/>
<circle cx="155.1" cy="182.1" r="3.1" fill="hsl(var(--link))" opacity="0.5"/>
<circle cx="136.5" cy="154.3" r="4.4" fill="hsl(var(--link))" opacity="0.95"/>
<circle cx="117.8" cy="126.6" r="4.4" fill="hsl(var(--link))" opacity="0.95"/>
<circle cx="99.2" cy="98.8" r="3.1" fill="hsl(var(--link))" opacity="0.5"/>
<circle cx="203.6" cy="142.2" r="3.1" fill="hsl(var(--link))" opacity="0.5"/>
<circle cx="185.0" cy="114.4" r="4.4" fill="hsl(var(--link))" opacity="0.95"/>
<circle cx="166.4" cy="86.7" r="3.1" fill="hsl(var(--link))" opacity="0.5"/>
<circle cx="252.2" cy="102.2" r="3.1" fill="hsl(var(--link))" opacity="0.5"/>
<circle cx="233.5" cy="74.5" r="3.1" fill="hsl(var(--link))" opacity="0.5"/>
<circle cx="300.7" cy="62.3" r="3.1" fill="hsl(var(--link))" opacity="0.5"/>
<circle cx="87.9" cy="241.8" r="3.1" fill="hsl(var(--link))" opacity="0.5"/>
<circle cx="69.3" cy="214.0" r="3.1" fill="hsl(var(--link))" opacity="0.5"/>
<circle cx="50.6" cy="186.2" r="3.1" fill="hsl(var(--link))" opacity="0.5"/>
<circle cx="32.0" cy="158.5" r="3.1" fill="hsl(var(--link))" opacity="0.5"/>
<circle cx="155.1" cy="229.6" r="3.1" fill="hsl(var(--link))" opacity="0.5"/>
<circle cx="136.5" cy="201.8" r="4.4" fill="hsl(var(--link))" opacity="0.95"/>
<circle cx="117.8" cy="174.1" r="4.4" fill="hsl(var(--link))" opacity="0.95"/>
<circle cx="99.2" cy="146.3" r="4.4" fill="hsl(var(--link))" opacity="0.95"/>
<circle cx="80.5" cy="118.6" r="3.1" fill="hsl(var(--link))" opacity="0.5"/>
<circle cx="203.6" cy="189.7" r="3.1" fill="hsl(var(--link))" opacity="0.5"/>
<circle cx="185.0" cy="161.9" r="4.4" fill="hsl(var(--link))" opacity="0.95"/>
<circle cx="166.4" cy="134.2" r="4.4" fill="hsl(var(--link))" opacity="0.95"/>
<circle cx="147.7" cy="106.4" r="3.1" fill="hsl(var(--link))" opacity="0.5"/>
<circle cx="252.2" cy="149.7" r="3.1" fill="hsl(var(--link))" opacity="0.5"/>
<circle cx="233.5" cy="122.0" r="4.4" fill="hsl(var(--link))" opacity="0.95"/>
<circle cx="214.9" cy="94.2" r="3.1" fill="hsl(var(--link))" opacity="0.5"/>
<circle cx="300.7" cy="109.8" r="3.1" fill="hsl(var(--link))" opacity="0.5"/>
<circle cx="282.1" cy="82.1" r="3.1" fill="hsl(var(--link))" opacity="0.5"/>
<circle cx="69.3" cy="261.5" r="3.1" fill="hsl(var(--link))" opacity="0.5"/>
<circle cx="50.6" cy="233.7" r="3.1" fill="hsl(var(--link))" opacity="0.5"/>
<circle cx="32.0" cy="206.0" r="3.1" fill="hsl(var(--link))" opacity="0.5"/>
<circle cx="136.5" cy="249.3" r="3.1" fill="hsl(var(--link))" opacity="0.5"/>
<circle cx="117.8" cy="221.6" r="4.4" fill="hsl(var(--link))" opacity="0.95"/>
<circle cx="99.2" cy="193.8" r="4.4" fill="hsl(var(--link))" opacity="0.95"/>
<circle cx="80.5" cy="166.1" r="3.1" fill="hsl(var(--link))" opacity="0.5"/>
<circle cx="203.6" cy="237.2" r="3.1" fill="hsl(var(--link))" opacity="0.5"/>
<circle cx="185.0" cy="209.4" r="4.4" fill="hsl(var(--link))" opacity="0.95"/>
<circle cx="147.7" cy="153.9" r="4.4" fill="hsl(var(--link))" opacity="0.95"/>
<circle cx="129.1" cy="126.1" r="3.1" fill="hsl(var(--link))" opacity="0.5"/>
<circle cx="252.2" cy="197.3" r="3.1" fill="hsl(var(--link))" opacity="0.5"/>
<circle cx="233.5" cy="169.5" r="4.4" fill="hsl(var(--link))" opacity="0.95"/>
<circle cx="214.9" cy="141.7" r="4.4" fill="hsl(var(--link))" opacity="0.95"/>
<circle cx="196.3" cy="114.0" r="3.1" fill="hsl(var(--link))" opacity="0.5"/>
<circle cx="300.7" cy="157.3" r="3.1" fill="hsl(var(--link))" opacity="0.5"/>
<circle cx="282.1" cy="129.6" r="3.1" fill="hsl(var(--link))" opacity="0.5"/>
<circle cx="263.5" cy="101.8" r="3.1" fill="hsl(var(--link))" opacity="0.5"/>
<circle cx="50.6" cy="281.3" r="3.1" fill="hsl(var(--link))" opacity="0.5"/>
<circle cx="32.0" cy="253.5" r="3.1" fill="hsl(var(--link))" opacity="0.5"/>
<circle cx="117.8" cy="269.1" r="3.1" fill="hsl(var(--link))" opacity="0.5"/>
<circle cx="99.2" cy="241.3" r="4.4" fill="hsl(var(--link))" opacity="0.95"/>
<circle cx="80.5" cy="213.6" r="3.1" fill="hsl(var(--link))" opacity="0.5"/>
<circle cx="185.0" cy="256.9" r="3.1" fill="hsl(var(--link))" opacity="0.5"/>
<circle cx="166.4" cy="229.2" r="4.4" fill="hsl(var(--link))" opacity="0.95"/>
<circle cx="147.7" cy="201.4" r="4.4" fill="hsl(var(--link))" opacity="0.95"/>
<circle cx="129.1" cy="173.6" r="3.1" fill="hsl(var(--link))" opacity="0.5"/>
<circle cx="252.2" cy="244.8" r="3.1" fill="hsl(var(--link))" opacity="0.5"/>
<circle cx="233.5" cy="217.0" r="4.4" fill="hsl(var(--link))" opacity="0.95"/>
<circle cx="214.9" cy="189.2" r="4.4" fill="hsl(var(--link))" opacity="0.95"/>
<circle cx="196.3" cy="161.5" r="4.4" fill="hsl(var(--link))" opacity="0.95"/>
<circle cx="177.6" cy="133.7" r="3.1" fill="hsl(var(--link))" opacity="0.5"/>
<circle cx="300.7" cy="204.8" r="3.1" fill="hsl(var(--link))" opacity="0.5"/>
<circle cx="282.1" cy="177.1" r="3.1" fill="hsl(var(--link))" opacity="0.5"/>
<circle cx="263.5" cy="149.3" r="3.1" fill="hsl(var(--link))" opacity="0.5"/>
<circle cx="244.8" cy="121.6" r="3.1" fill="hsl(var(--link))" opacity="0.5"/>
<circle cx="32.0" cy="301.0" r="3.1" fill="hsl(var(--link))" opacity="0.5"/>
<circle cx="99.2" cy="288.8" r="3.1" fill="hsl(var(--link))" opacity="0.5"/>
<circle cx="80.5" cy="261.1" r="3.1" fill="hsl(var(--link))" opacity="0.5"/>
<circle cx="166.4" cy="276.7" r="3.1" fill="hsl(var(--link))" opacity="0.5"/>
<circle cx="147.7" cy="248.9" r="4.4" fill="hsl(var(--link))" opacity="0.95"/>
<circle cx="129.1" cy="221.1" r="3.1" fill="hsl(var(--link))" opacity="0.5"/>
<circle cx="233.5" cy="264.5" r="3.1" fill="hsl(var(--link))" opacity="0.5"/>
<circle cx="214.9" cy="236.7" r="4.4" fill="hsl(var(--link))" opacity="0.95"/>
<circle cx="196.3" cy="209.0" r="4.4" fill="hsl(var(--link))" opacity="0.95"/>
<circle cx="177.6" cy="181.2" r="3.1" fill="hsl(var(--link))" opacity="0.5"/>
<circle cx="300.7" cy="252.3" r="3.1" fill="hsl(var(--link))" opacity="0.5"/>
<circle cx="282.1" cy="224.6" r="3.1" fill="hsl(var(--link))" opacity="0.5"/>
<circle cx="263.5" cy="196.8" r="3.1" fill="hsl(var(--link))" opacity="0.5"/>
<circle cx="244.8" cy="169.1" r="3.1" fill="hsl(var(--link))" opacity="0.5"/>
<circle cx="226.2" cy="141.3" r="3.1" fill="hsl(var(--link))" opacity="0.5"/>
<circle cx="80.5" cy="308.6" r="3.1" fill="hsl(var(--link))" opacity="0.5"/>
<circle cx="147.7" cy="296.4" r="3.1" fill="hsl(var(--link))" opacity="0.5"/>
<circle cx="129.1" cy="268.7" r="3.1" fill="hsl(var(--link))" opacity="0.5"/>
<circle cx="214.9" cy="284.2" r="3.1" fill="hsl(var(--link))" opacity="0.5"/>
<circle cx="196.3" cy="256.5" r="4.4" fill="hsl(var(--link))" opacity="0.95"/>
<circle cx="177.6" cy="228.7" r="3.1" fill="hsl(var(--link))" opacity="0.5"/>
<circle cx="282.1" cy="272.1" r="3.1" fill="hsl(var(--link))" opacity="0.5"/>
<circle cx="263.5" cy="244.3" r="3.1" fill="hsl(var(--link))" opacity="0.5"/>
<circle cx="244.8" cy="216.6" r="3.1" fill="hsl(var(--link))" opacity="0.5"/>
<circle cx="226.2" cy="188.8" r="3.1" fill="hsl(var(--link))" opacity="0.5"/>
<circle cx="129.1" cy="316.2" r="3.1" fill="hsl(var(--link))" opacity="0.5"/>
<circle cx="196.3" cy="304.0" r="3.1" fill="hsl(var(--link))" opacity="0.5"/>
<circle cx="177.6" cy="276.2" r="3.1" fill="hsl(var(--link))" opacity="0.5"/>
<circle cx="263.5" cy="291.8" r="3.1" fill="hsl(var(--link))" opacity="0.5"/>
<circle cx="244.8" cy="264.1" r="3.1" fill="hsl(var(--link))" opacity="0.5"/>
<circle cx="226.2" cy="236.3" r="3.1" fill="hsl(var(--link))" opacity="0.5"/>
<circle cx="177.6" cy="323.7" r="3.1" fill="hsl(var(--link))" opacity="0.5"/>
<circle cx="244.8" cy="311.6" r="3.1" fill="hsl(var(--link))" opacity="0.5"/>
<circle cx="226.2" cy="283.8" r="3.1" fill="hsl(var(--link))" opacity="0.5"/>
<circle cx="226.2" cy="331.3" r="3.1" fill="hsl(var(--link))" opacity="0.5"/>
<circle cx="166.4" cy="181.7" r="5" fill="hsl(var(--foreground))"/>
</svg>