<svg viewBox="0 0 383 388" role="img" aria-label="real 62-step walk: skeleton and stitches">
<polyline points="366.7,241.0 296.6,263.5 343.3,299.5 296.6,362.5 343.3,326.5 320.0,295.0 249.8,218.5 226.4,187.0 179.7,106.0 179.7,169.0 156.3,191.5 203.1,128.5 203.1,92.5 179.7,88.0 109.5,65.5 179.7,16.0 249.8,65.5 179.7,97.0 132.9,43.0 39.4,79.0 16.0,155.5" fill="none" stroke="hsl(var(--muted-fg))" stroke-width="1.3" stroke-dasharray="6 5" opacity="0.7"/>
<polyline points="366.7,241.0 358.9,272.5 327.8,281.5 296.6,263.5 312.2,281.5 343.3,299.5 320.0,304.0 304.4,331.0 296.6,362.5 312.2,371.5 343.3,353.5 343.3,326.5 335.6,313.0 312.2,299.5 320.0,295.0 320.0,295.0 296.6,281.5 296.6,254.5 281.0,236.5 249.8,218.5 226.4,223.0 226.4,223.0 226.4,187.0 218.6,155.5 187.5,137.5 179.7,106.0 179.7,106.0 179.7,133.0 179.7,169.0 164.1,187.0 164.1,187.0 156.3,191.5 156.3,191.5 164.1,178.0 171.9,146.5 203.1,128.5 203.1,110.5 203.1,110.5 203.1,92.5 187.5,92.5 179.7,88.0 179.7,88.0 171.9,83.5 140.7,83.5 109.5,65.5 132.9,43.0 148.5,25.0 179.7,16.0 195.3,34.0 218.6,56.5 249.8,65.5 234.2,65.5 210.9,79.0 179.7,97.0 148.5,106.0 148.5,70.0 132.9,43.0 101.7,52.0 70.6,70.0 39.4,79.0 39.4,97.0 23.8,124.0 16.0,155.5" fill="none" stroke="hsl(var(--border))" stroke-width="1.6"/>
<circle cx="366.7" cy="241.0" r="4.4" fill="hsl(var(--link))"/>
<circle cx="358.9" cy="272.5" r="3" fill="hsl(142 71% 40%)"/>
<circle cx="327.8" cy="281.5" r="3" fill="hsl(142 71% 40%)"/>
<circle cx="296.6" cy="263.5" r="4.4" fill="hsl(var(--link))"/>
<circle cx="312.2" cy="281.5" r="3" fill="hsl(142 71% 40%)"/>
<circle cx="343.3" cy="299.5" r="4.4" fill="hsl(var(--link))"/>
<circle cx="320.0" cy="304.0" r="3" fill="hsl(142 71% 40%)"/>
<circle cx="304.4" cy="331.0" r="3" fill="hsl(142 71% 40%)"/>
<circle cx="296.6" cy="362.5" r="4.4" fill="hsl(var(--link))"/>
<circle cx="312.2" cy="371.5" r="3" fill="hsl(142 71% 40%)"/>
<circle cx="343.3" cy="353.5" r="3" fill="hsl(142 71% 40%)"/>
<circle cx="343.3" cy="326.5" r="4.4" fill="hsl(var(--link))"/>
<circle cx="335.6" cy="313.0" r="3" fill="hsl(142 71% 40%)"/>
<circle cx="312.2" cy="299.5" r="3" fill="hsl(142 71% 40%)"/>
<circle cx="320.0" cy="295.0" r="3" fill="hsl(142 71% 40%)"/>
<circle cx="320.0" cy="295.0" r="4.4" fill="hsl(var(--link))"/>
<circle cx="296.6" cy="281.5" r="3" fill="hsl(142 71% 40%)"/>
<circle cx="296.6" cy="254.5" r="3" fill="hsl(142 71% 40%)"/>
<circle cx="281.0" cy="236.5" r="3" fill="hsl(142 71% 40%)"/>
<circle cx="249.8" cy="218.5" r="4.4" fill="hsl(var(--link))"/>
<circle cx="226.4" cy="223.0" r="3" fill="hsl(142 71% 40%)"/>
<circle cx="226.4" cy="223.0" r="3" fill="hsl(142 71% 40%)"/>
<circle cx="226.4" cy="187.0" r="4.4" fill="hsl(var(--link))"/>
<circle cx="218.6" cy="155.5" r="3" fill="hsl(142 71% 40%)"/>
<circle cx="187.5" cy="137.5" r="3" fill="hsl(142 71% 40%)"/>
<circle cx="179.7" cy="106.0" r="4.4" fill="hsl(var(--link))"/>
<circle cx="179.7" cy="106.0" r="3" fill="hsl(142 71% 40%)"/>
<circle cx="179.7" cy="133.0" r="3" fill="hsl(142 71% 40%)"/>
<circle cx="179.7" cy="169.0" r="4.4" fill="hsl(var(--link))"/>
<circle cx="164.1" cy="187.0" r="3" fill="hsl(142 71% 40%)"/>
<circle cx="164.1" cy="187.0" r="3" fill="hsl(142 71% 40%)"/>
<circle cx="156.3" cy="191.5" r="3" fill="hsl(142 71% 40%)"/>
<circle cx="156.3" cy="191.5" r="4.4" fill="hsl(var(--link))"/>
<circle cx="164.1" cy="178.0" r="3" fill="hsl(142 71% 40%)"/>
<circle cx="171.9" cy="146.5" r="3" fill="hsl(142 71% 40%)"/>
<circle cx="203.1" cy="128.5" r="4.4" fill="hsl(var(--link))"/>
<circle cx="203.1" cy="110.5" r="3" fill="hsl(142 71% 40%)"/>
<circle cx="203.1" cy="110.5" r="3" fill="hsl(142 71% 40%)"/>
<circle cx="203.1" cy="92.5" r="4.4" fill="hsl(var(--link))"/>
<circle cx="187.5" cy="92.5" r="3" fill="hsl(142 71% 40%)"/>
<circle cx="179.7" cy="88.0" r="3" fill="hsl(142 71% 40%)"/>
<circle cx="179.7" cy="88.0" r="4.4" fill="hsl(var(--link))"/>
<circle cx="171.9" cy="83.5" r="3" fill="hsl(142 71% 40%)"/>
<circle cx="140.7" cy="83.5" r="3" fill="hsl(142 71% 40%)"/>
<circle cx="109.5" cy="65.5" r="4.4" fill="hsl(var(--link))"/>
<circle cx="132.9" cy="43.0" r="3" fill="hsl(142 71% 40%)"/>
<circle cx="148.5" cy="25.0" r="3" fill="hsl(142 71% 40%)"/>
<circle cx="179.7" cy="16.0" r="4.4" fill="hsl(var(--link))"/>
<circle cx="195.3" cy="34.0" r="3" fill="hsl(142 71% 40%)"/>
<circle cx="218.6" cy="56.5" r="3" fill="hsl(142 71% 40%)"/>
<circle cx="249.8" cy="65.5" r="4.4" fill="hsl(var(--link))"/>
<circle cx="234.2" cy="65.5" r="3" fill="hsl(142 71% 40%)"/>
<circle cx="210.9" cy="79.0" r="3" fill="hsl(142 71% 40%)"/>
<circle cx="179.7" cy="97.0" r="4.4" fill="hsl(var(--link))"/>
<circle cx="148.5" cy="106.0" r="3" fill="hsl(142 71% 40%)"/>
<circle cx="148.5" cy="70.0" r="3" fill="hsl(142 71% 40%)"/>
<circle cx="132.9" cy="43.0" r="4.4" fill="hsl(var(--link))"/>
<circle cx="101.7" cy="52.0" r="3" fill="hsl(142 71% 40%)"/>
<circle cx="70.6" cy="70.0" r="3" fill="hsl(142 71% 40%)"/>
<circle cx="39.4" cy="79.0" r="4.4" fill="hsl(var(--link))"/>
<circle cx="39.4" cy="97.0" r="3" fill="hsl(142 71% 40%)"/>
<circle cx="23.8" cy="124.0" r="3" fill="hsl(142 71% 40%)"/>
<circle cx="16.0" cy="155.5" r="4.4" fill="hsl(var(--link))"/>
</svg>